# xmcd
#
# Track frame offsets:
#	150
#	18353
#	68622
#	86323
#	119123
#	144486
#	172172
#	195977
#	211402
#
# Disc length: 3022 seconds
#
# Revision: 1
# Processed by: cddbd v1.5.2PL0 Copyright (c) Steve Scherf et al.
# Submitted via: audiograbber 1.83.01
#
DISCID=7a0bcc09
DTITLE=Masa Orpana - Brothers
DYEAR=2007
DGENRE=Instrumental
TTITLE0=Amur (Ville Rauhala)
TTITLE1=Sketches of Tammela (Rauhala)
TTITLE2=Herra on minun paimeneni (Kusti Vuorinen)
TTITLE3=Herran sanat (Vuorinen)
TTITLE4=The Blue Truth (Orpana)
TTITLE5=Kesäranta Etelä-Saimaalla (Anssi Tikanmäki)
TTITLE6=Lumikki (Vuorinen)
TTITLE7=Brothers (Rauhala)
TTITLE8=Grand Finale (Tikanmäki)
EXTD=Alba Records Oy, ABCD 254
EXTT0=
EXTT1=
EXTT2=
EXTT3=
EXTT4=
EXTT5=arr. Orpana, Pispanen, Rauhala
EXTT6=
EXTT7=
EXTT8=arr. Orpana, Pispanen, Rauhala
PLAYORDER=
